<svg width="582" height="224" viewBox="0 0 582 224" fill="none" xmlns="http://www.w3.org/2000/svg">
    <path d="M6.55138 200.136C6.55138 200.904 6.88738 201.504 7.31938 202.056C7.58338 202.392 8.03938 202.56 8.03938 203.184C8.03938 203.64 7.75138 204.072 6.93538 204.072C6.14338 204.072 5.13538 204 4.43938 204C3.47938 204 2.59138 204.072 1.53538 204.072C0.911375 204.072 0.671375 203.688 0.671375 203.232C0.671375 202.584 1.17538 202.2 1.39138 201.912C1.99138 201.072 2.03938 200.256 2.03938 199.632V190.824C2.03938 190.128 1.53538 189.744 1.29538 189.576C1.03138 189.384 0.791375 189.216 0.791375 188.808C0.791375 188.112 1.79938 187.968 3.02338 187.464C4.27138 186.96 5.25538 186.36 5.90338 186.36C6.43138 186.36 6.83938 186.624 6.83938 187.248C6.83938 189.048 6.59938 192.072 6.59938 196.44C6.59938 196.728 6.71938 196.8 6.79138 196.8C7.17538 196.8 8.99938 195.504 8.99938 194.328C8.99938 193.824 8.03938 193.08 8.03938 192.504C8.03938 191.808 8.59138 191.616 9.07138 191.616C9.98338 191.616 10.8714 191.688 11.8314 191.688C12.7914 191.688 13.1274 191.568 14.1114 191.568C14.4954 191.568 15.3594 191.568 15.3594 192.456C15.3594 193.056 14.8074 193.44 14.1114 193.848C13.0314 194.472 11.7114 195.264 10.6794 196.104C10.5594 196.2 10.5114 196.248 10.5114 196.32C10.5114 196.416 10.5834 196.464 10.7034 196.512C13.7034 197.712 13.2474 200.352 15.0714 201.936C15.2154 202.056 15.9354 202.512 15.9354 203.208C15.9354 203.472 15.8154 204.072 15.0954 204.072C14.4234 204.072 13.2474 204.024 12.3114 204.024C11.2554 204.024 10.6074 204.12 10.0074 204.12C9.33538 204.12 8.87938 203.808 8.87938 203.232C8.87938 202.848 8.99938 202.632 8.99938 202.272C8.99938 201.504 8.66338 200.784 8.37538 200.256C8.01538 199.608 7.46338 199.2 7.12738 199.2C6.62338 199.2 6.55138 199.584 6.55138 200.136ZM17.1024 189.216C17.1024 187.632 18.6864 185.976 20.3904 185.976C21.5664 185.976 22.5024 186.744 22.5024 187.944C22.5024 189.576 20.7264 190.896 18.9744 190.896C17.7024 190.896 17.1024 190.2 17.1024 189.216ZM22.2384 192.336C22.2384 193.248 22.0944 194.88 22.0944 197.64V199.848C22.0944 201.024 22.2624 201.432 22.6224 201.912C22.9824 202.392 23.4144 202.488 23.4144 203.184C23.4144 203.712 23.1264 204.072 22.3104 204.072C21.5184 204.072 20.5104 204 19.8144 204C18.8544 204 17.9664 204.072 16.9104 204.072C16.2864 204.072 16.0464 203.688 16.0464 203.232C16.0464 202.584 16.5504 202.2 16.7664 201.912C17.3664 201.072 17.4144 200.256 17.4144 199.632V196.56C17.4144 195.6 17.0064 195.048 16.7184 194.808C16.4544 194.568 16.1424 194.376 16.1424 193.944C16.1424 193.128 17.1744 193.056 18.3984 192.552C19.6464 192.048 20.8224 191.448 21.3024 191.448C21.9024 191.448 22.2384 191.712 22.2384 192.336ZM29.8745 195.024C29.8265 195.624 29.7785 196.896 29.7785 198.192C29.7785 199.584 30.2825 200.472 31.2905 200.472C31.7225 200.472 31.9625 200.28 32.1785 200.184C32.2745 200.136 32.3465 200.112 32.4665 200.112C32.7065 200.112 32.8985 200.304 32.8985 200.856C32.8985 201.168 32.8025 201.504 32.6585 201.864C32.1785 202.944 30.8105 204.24 28.6505 204.24C25.8905 204.24 25.0025 202.344 25.0025 199.8C25.0025 198.744 25.1465 197.28 25.1465 195.504C25.1465 194.952 24.9785 194.616 24.4985 194.52C24.0425 194.448 23.6585 194.232 23.6585 193.752C23.6585 193.224 23.7305 192.648 24.2825 192.336C25.2425 191.784 26.1545 191.064 26.8025 190.488C27.8825 189.528 28.1225 188.664 28.9625 188.664C29.5145 188.664 29.9945 189.048 29.9945 190.008C29.9945 190.584 29.8745 191.808 29.8745 191.928C29.8745 192 29.8985 192.048 29.9945 192.048C30.3065 192.048 31.1225 191.952 31.4825 191.952C32.1785 191.952 32.5625 192.144 32.5625 192.984C32.5625 193.488 32.2985 194.232 31.9625 194.616C31.8665 194.712 31.6745 194.808 31.3625 194.808C31.0745 194.808 30.5705 194.736 30.1145 194.736C30.0425 194.736 29.8985 194.76 29.8745 195.024ZM33.2523 198.12C33.2523 194.568 35.6043 191.448 39.7323 191.448C42.0603 191.448 44.0523 192.504 44.0523 194.496C44.0523 195.864 43.1883 197.016 41.3163 197.016C40.7163 197.016 40.2843 196.8 40.1403 196.128C39.9483 195.288 39.8763 193.752 38.8923 193.752C38.0763 193.752 37.7883 194.76 37.7883 195.912C37.7883 198.12 38.9883 199.944 41.1723 199.944C42.5643 199.944 43.3323 199.296 43.8363 198.96C44.0043 198.84 44.1483 198.768 44.2923 198.768C44.7243 198.768 44.7963 199.248 44.7963 199.728C44.7963 201.984 42.6603 204.288 39.3723 204.288C35.5323 204.288 33.2523 201.552 33.2523 198.12ZM46.3831 199.632V190.824C46.3831 190.128 45.8791 189.744 45.6391 189.576C45.3751 189.384 45.1351 189.216 45.1351 188.808C45.1351 188.112 46.1431 187.968 47.3671 187.464C48.6151 186.96 49.5991 186.36 50.2471 186.36C50.7751 186.36 51.1831 186.624 51.1831 187.248C51.1831 188.064 50.8711 189.816 50.8711 192.528C50.8711 192.96 50.9671 193.032 51.0631 193.032C51.3751 193.032 52.7191 191.448 54.8551 191.448C57.7111 191.448 58.6471 193.2 58.6471 195.672C58.6471 197.232 58.3351 199.344 58.3351 200.28C58.3351 200.952 58.5271 201.624 58.9351 202.008C59.3911 202.44 59.7751 202.536 59.7751 203.184C59.7751 203.712 59.3911 204.072 58.5751 204.072C57.7831 204.072 56.9431 204 56.2471 204C55.2871 204 54.9511 204.072 53.8951 204.072C53.2711 204.072 53.0311 203.688 53.0311 203.232C53.0311 202.584 53.2471 202.08 53.3671 201.744C53.6071 201.072 53.8231 198.936 53.8231 197.256C53.8231 195.384 53.3671 194.592 52.3351 194.592C51.9031 194.592 51.0631 194.88 51.0631 196.344V199.848C51.0631 201.024 51.0871 201.432 51.4471 201.912C51.8071 202.392 52.2391 202.488 52.2391 203.184C52.2391 203.712 51.9511 204.072 51.1351 204.072C50.3431 204.072 49.4791 204 48.7831 204C47.8231 204 46.9351 204.072 45.8791 204.072C45.2551 204.072 45.0151 203.688 45.0151 203.232C45.0151 202.584 45.5191 202.2 45.7351 201.912C46.3351 201.072 46.3831 200.256 46.3831 199.632ZM67.4981 194.976C67.4981 194.328 67.0901 193.824 66.4421 193.824C65.5541 193.824 65.0501 194.784 65.0501 195.72C65.0501 196.296 65.2421 196.632 65.6501 196.632C66.1061 196.632 66.9941 196.272 67.3541 195.6C67.4501 195.408 67.4981 195.216 67.4981 194.976ZM70.5461 197.64C69.2501 198.264 67.0181 198.576 66.0821 198.672C65.8421 198.696 65.7461 198.744 65.7461 198.912C65.7461 199.56 66.4661 200.496 68.1461 200.496C69.6101 200.496 70.4501 199.848 71.0501 199.512C71.2421 199.392 71.4341 199.32 71.5781 199.32C71.8661 199.32 72.0341 199.584 72.0341 200.136C72.0341 201.936 69.9461 204.288 66.5621 204.288C62.6021 204.288 60.3461 201.744 60.3461 198.144C60.3461 194.544 62.9621 191.448 66.9461 191.448C70.7141 191.448 71.8181 194.352 71.8181 195.768C71.8181 196.728 71.2901 197.28 70.5461 197.64ZM86.3268 195.672C86.3268 197.232 86.0148 199.344 86.0148 200.28C86.0148 200.952 86.2068 201.624 86.6148 202.008C87.0708 202.44 87.4548 202.536 87.4548 203.184C87.4548 203.712 87.0708 204.072 86.2548 204.072C85.4628 204.072 84.6228 204 83.9268 204C82.9668 204 82.6308 204.072 81.5748 204.072C80.9508 204.072 80.7108 203.688 80.7108 203.232C80.7108 202.584 80.9268 202.08 81.0468 201.744C81.2868 201.072 81.5028 198.936 81.5028 197.256C81.5028 195.384 81.0468 194.592 80.0148 194.592C79.5828 194.592 78.7428 194.88 78.7428 196.344V199.848C78.7428 201.024 78.7668 201.432 79.1268 201.912C79.4868 202.392 79.9188 202.488 79.9188 203.184C79.9188 203.712 79.6308 204.072 78.8148 204.072C78.0228 204.072 77.1588 204 76.4628 204C75.5028 204 74.6148 204.072 73.5588 204.072C72.9348 204.072 72.6948 203.688 72.6948 203.232C72.6948 202.584 73.1988 202.2 73.4148 201.912C74.0148 201.072 74.0628 200.256 74.0628 199.632V196.056C74.0628 195.192 73.5348 194.808 73.2948 194.64C73.0308 194.448 72.8148 194.28 72.8148 193.872C72.8148 193.104 73.7988 192.984 74.9988 192.432C76.5348 191.712 76.7508 191.448 77.2308 191.448C77.8308 191.448 78.1428 191.688 78.3828 192.504C78.4548 192.792 78.5508 193.032 78.7428 193.032C79.0548 193.032 80.3988 191.448 82.5348 191.448C85.3908 191.448 86.3268 193.2 86.3268 195.672ZM100.746 199.608C100.746 198.696 100.65 198.576 100.554 198.576C100.434 198.576 100.17 198.672 99.8578 198.84C99.3298 199.128 98.7298 199.632 98.7298 200.352C98.7298 200.784 98.9458 201.24 99.5458 201.24C100.506 201.24 100.746 200.352 100.746 199.608ZM97.3618 197.352C98.7298 196.8 99.9297 196.632 100.338 196.296C100.53 196.152 100.698 195.816 100.698 194.928C100.698 194.064 100.29 193.488 99.6418 193.488C99.0418 193.488 98.5378 194.064 98.1298 195.336C97.8898 196.104 97.5298 196.728 96.4978 196.728C95.3698 196.728 94.5058 195.96 94.5058 194.592C94.5058 193.032 96.3058 191.424 99.6418 191.424C102.426 191.424 105.426 192.384 105.426 196.2C105.426 197.664 105.306 198.456 105.306 199.92C105.306 200.304 105.426 200.832 105.978 200.832C106.146 200.832 106.29 200.784 106.458 200.784C106.65 200.784 106.746 201.072 106.746 201.336C106.746 203.064 105.33 204.24 103.578 204.24C102.258 204.24 101.586 203.808 101.154 203.184C101.082 203.088 101.01 202.968 100.914 202.968C100.794 202.968 100.698 203.064 100.602 203.16C99.9058 203.784 98.7058 204.288 97.6258 204.288C95.6098 204.288 94.0498 203.28 94.0498 201.24C94.0498 199.32 95.2978 198.192 97.3618 197.352ZM120.663 195.672C120.663 197.232 120.351 199.344 120.351 200.28C120.351 200.952 120.543 201.624 120.951 202.008C121.407 202.44 121.791 202.536 121.791 203.184C121.791 203.712 121.407 204.072 120.591 204.072C119.799 204.072 118.959 204 118.263 204C117.303 204 116.967 204.072 115.911 204.072C115.287 204.072 115.047 203.688 115.047 203.232C115.047 202.584 115.263 202.08 115.383 201.744C115.623 201.072 115.839 198.936 115.839 197.256C115.839 195.384 115.383 194.592 114.351 194.592C113.919 194.592 113.079 194.88 113.079 196.344V199.848C113.079 201.024 113.103 201.432 113.463 201.912C113.823 202.392 114.255 202.488 114.255 203.184C114.255 203.712 113.967 204.072 113.151 204.072C112.359 204.072 111.495 204 110.799 204C109.839 204 108.951 204.072 107.895 204.072C107.271 204.072 107.031 203.688 107.031 203.232C107.031 202.584 107.535 202.2 107.751 201.912C108.351 201.072 108.399 200.256 108.399 199.632V196.056C108.399 195.192 107.871 194.808 107.631 194.64C107.367 194.448 107.151 194.28 107.151 193.872C107.151 193.104 108.135 192.984 109.335 192.432C110.871 191.712 111.087 191.448 111.567 191.448C112.167 191.448 112.479 191.688 112.719 192.504C112.791 192.792 112.887 193.032 113.079 193.032C113.391 193.032 114.735 191.448 116.871 191.448C119.727 191.448 120.663 193.2 120.663 195.672ZM129.058 200.88C129.706 200.88 130.186 200.328 130.186 197.616C130.186 194.832 129.562 193.992 128.866 193.992C128.122 193.992 127.498 194.712 127.498 197.28C127.498 199.92 128.218 200.88 129.058 200.88ZM133.138 204.24C131.89 204.24 131.278 203.916 130.642 203.136C130.45 202.908 130.378 202.656 130.186 202.656C130.066 202.656 129.898 202.848 129.634 203.088C129.106 203.568 128.242 204.24 126.826 204.24C124.45 204.24 122.434 202.344 122.434 198.312C122.434 193.944 124.522 191.448 127.258 191.448C129.178 191.448 129.754 192.336 129.946 192.336C130.066 192.336 130.138 192.144 130.138 191.232V190.992C130.138 190.224 129.61 189.744 129.37 189.576C129.106 189.384 128.866 189.216 128.866 188.808C128.866 188.112 129.874 187.968 131.098 187.464C132.346 186.96 133.33 186.36 133.978 186.36C134.506 186.36 134.914 186.624 134.914 187.248C134.914 189.048 134.794 188.88 134.794 192.672V199.92C134.794 200.304 134.986 200.832 135.538 200.832C135.706 200.832 135.85 200.784 136.018 200.784C136.21 200.784 136.306 201.072 136.306 201.336C136.306 203.064 134.89 204.24 133.138 204.24ZM142.893 198.12C142.893 194.568 145.245 191.448 149.373 191.448C151.701 191.448 153.693 192.504 153.693 194.496C153.693 195.864 152.829 197.016 150.957 197.016C150.357 197.016 149.925 196.8 149.781 196.128C149.589 195.288 149.517 193.752 148.533 193.752C147.717 193.752 147.429 194.76 147.429 195.912C147.429 198.12 148.629 199.944 150.813 199.944C152.205 199.944 152.973 199.296 153.477 198.96C153.645 198.84 153.789 198.768 153.933 198.768C154.365 198.768 154.437 199.248 154.437 199.728C154.437 201.984 152.301 204.288 149.013 204.288C145.173 204.288 142.893 201.552 142.893 198.12ZM161.777 199.608C161.777 198.696 161.681 198.576 161.585 198.576C161.465 198.576 161.201 198.672 160.889 198.84C160.361 199.128 159.761 199.632 159.761 200.352C159.761 200.784 159.977 201.24 160.577 201.24C161.537 201.24 161.777 200.352 161.777 199.608ZM158.393 197.352C159.761 196.8 160.961 196.632 161.369 196.296C161.561 196.152 161.729 195.816 161.729 194.928C161.729 194.064 161.321 193.488 160.673 193.488C160.073 193.488 159.569 194.064 159.161 195.336C158.921 196.104 158.561 196.728 157.529 196.728C156.401 196.728 155.537 195.96 155.537 194.592C155.537 193.032 157.337 191.424 160.673 191.424C163.457 191.424 166.457 192.384 166.457 196.2C166.457 197.664 166.337 198.456 166.337 199.92C166.337 200.304 166.457 200.832 167.009 200.832C167.177 200.832 167.321 200.784 167.489 200.784C167.681 200.784 167.777 201.072 167.777 201.336C167.777 203.064 166.361 204.24 164.609 204.24C163.289 204.24 162.617 203.808 162.185 203.184C162.113 203.088 162.041 202.968 161.945 202.968C161.825 202.968 161.729 203.064 161.633 203.16C160.937 203.784 159.737 204.288 158.657 204.288C156.641 204.288 155.081 203.28 155.081 201.24C155.081 199.32 156.329 198.192 158.393 197.352ZM173.851 195.024C173.803 195.624 173.755 196.896 173.755 198.192C173.755 199.584 174.259 200.472 175.267 200.472C175.699 200.472 175.939 200.28 176.155 200.184C176.251 200.136 176.323 200.112 176.443 200.112C176.683 200.112 176.875 200.304 176.875 200.856C176.875 201.168 176.779 201.504 176.635 201.864C176.155 202.944 174.787 204.24 172.627 204.24C169.867 204.24 168.979 202.344 168.979 199.8C168.979 198.744 169.123 197.28 169.123 195.504C169.123 194.952 168.955 194.616 168.475 194.52C168.019 194.448 167.635 194.232 167.635 193.752C167.635 193.224 167.707 192.648 168.259 192.336C169.219 191.784 170.131 191.064 170.779 190.488C171.859 189.528 172.099 188.664 172.939 188.664C173.491 188.664 173.971 189.048 173.971 190.008C173.971 190.584 173.851 191.808 173.851 191.928C173.851 192 173.875 192.048 173.971 192.048C174.283 192.048 175.099 191.952 175.459 191.952C176.155 191.952 176.539 192.144 176.539 192.984C176.539 193.488 176.275 194.232 175.939 194.616C175.843 194.712 175.651 194.808 175.339 194.808C175.051 194.808 174.547 194.736 174.091 194.736C174.019 194.736 173.875 194.76 173.851 195.024ZM184.381 194.976C184.381 194.328 183.973 193.824 183.325 193.824C182.437 193.824 181.933 194.784 181.933 195.72C181.933 196.296 182.125 196.632 182.533 196.632C182.989 196.632 183.877 196.272 184.237 195.6C184.333 195.408 184.381 195.216 184.381 194.976ZM187.429 197.64C186.133 198.264 183.901 198.576 182.965 198.672C182.725 198.696 182.629 198.744 182.629 198.912C182.629 199.56 183.349 200.496 185.029 200.496C186.493 200.496 187.333 199.848 187.933 199.512C188.125 199.392 188.317 199.32 188.461 199.32C188.749 199.32 188.917 199.584 188.917 200.136C188.917 201.936 186.829 204.288 183.445 204.288C179.485 204.288 177.229 201.744 177.229 198.144C177.229 194.544 179.845 191.448 183.829 191.448C187.597 191.448 188.701 194.352 188.701 195.768C188.701 196.728 188.173 197.28 187.429 197.64ZM196.394 195.096C195.794 195.096 195.626 195.936 195.626 196.992V199.608C195.626 200.784 195.722 201.264 196.442 201.936C196.874 202.344 197.618 202.488 197.618 203.184C197.618 203.712 197.33 204.072 196.514 204.072C195.722 204.072 194.882 204 193.346 204C192.386 204 191.498 204.072 190.442 204.072C189.818 204.072 189.578 203.688 189.578 203.232C189.578 202.584 190.082 202.2 190.298 201.912C190.898 201.072 190.946 200.256 190.946 199.632V196.056C190.946 195.192 190.418 194.808 190.178 194.64C189.914 194.448 189.698 194.28 189.698 193.872C189.698 193.104 190.682 192.984 191.882 192.432C193.418 191.712 193.634 191.448 194.114 191.448C194.714 191.448 195.026 191.688 195.266 192.504C195.338 192.792 195.434 193.032 195.626 193.032C195.938 193.032 196.886 191.448 198.602 191.448C199.958 191.448 201.158 192.228 201.158 194.532C201.158 196.14 199.898 197.868 198.422 197.868C197.438 197.868 197.294 197.268 197.066 196.272C196.886 195.492 196.634 195.096 196.394 195.096ZM202.446 189.216C202.446 187.632 204.03 185.976 205.734 185.976C206.91 185.976 207.846 186.744 207.846 187.944C207.846 189.576 206.07 190.896 204.318 190.896C203.046 190.896 202.446 190.2 202.446 189.216ZM207.582 192.336C207.582 193.248 207.438 194.88 207.438 197.64V199.848C207.438 201.024 207.606 201.432 207.966 201.912C208.326 202.392 208.758 202.488 208.758 203.184C208.758 203.712 208.47 204.072 207.654 204.072C206.862 204.072 205.854 204 205.158 204C204.198 204 203.31 204.072 202.254 204.072C201.63 204.072 201.39 203.688 201.39 203.232C201.39 202.584 201.894 202.2 202.11 201.912C202.71 201.072 202.758 200.256 202.758 199.632V196.56C202.758 195.6 202.35 195.048 202.062 194.808C201.798 194.568 201.486 194.376 201.486 193.944C201.486 193.128 202.518 193.056 203.742 192.552C204.99 192.048 206.166 191.448 206.646 191.448C207.246 191.448 207.582 191.712 207.582 192.336ZM222.967 195.672C222.967 197.232 222.655 199.344 222.655 200.28C222.655 200.952 222.847 201.624 223.255 202.008C223.711 202.44 224.095 202.536 224.095 203.184C224.095 203.712 223.711 204.072 222.895 204.072C222.103 204.072 221.263 204 220.567 204C219.607 204 219.271 204.072 218.215 204.072C217.591 204.072 217.351 203.688 217.351 203.232C217.351 202.584 217.567 202.08 217.687 201.744C217.927 201.072 218.143 198.936 218.143 197.256C218.143 195.384 217.687 194.592 216.655 194.592C216.223 194.592 215.383 194.88 215.383 196.344V199.848C215.383 201.024 215.407 201.432 215.767 201.912C216.127 202.392 216.559 202.488 216.559 203.184C216.559 203.712 216.271 204.072 215.455 204.072C214.663 204.072 213.799 204 213.103 204C212.143 204 211.255 204.072 210.199 204.072C209.575 204.072 209.335 203.688 209.335 203.232C209.335 202.584 209.839 202.2 210.055 201.912C210.655 201.072 210.703 200.256 210.703 199.632V196.056C210.703 195.192 210.175 194.808 209.935 194.64C209.671 194.448 209.455 194.28 209.455 193.872C209.455 193.104 210.439 192.984 211.639 192.432C213.175 191.712 213.391 191.448 213.871 191.448C214.471 191.448 214.783 191.688 215.023 192.504C215.095 192.792 215.191 193.032 215.383 193.032C215.695 193.032 217.039 191.448 219.175 191.448C222.031 191.448 222.967 193.2 222.967 195.672ZM230.141 191.448C231.893 191.448 233.525 191.904 234.413 191.904C235.949 191.904 236.357 191.448 236.909 191.448C237.221 191.448 237.413 191.664 237.413 192.144C237.413 192.648 237.341 193.176 237.197 193.608C237.101 193.944 236.837 194.712 236.189 194.712C235.925 194.712 235.589 194.592 235.469 194.592C235.373 194.592 235.349 194.64 235.349 194.712C235.349 194.88 235.565 195.264 235.565 195.768C235.565 198.432 233.261 199.968 230.381 199.968C229.901 199.968 229.493 199.92 229.253 199.92C228.797 199.92 228.341 200.184 228.341 200.616C228.341 201.048 228.725 201.288 229.349 201.288C230.213 201.288 231.749 200.832 233.357 200.832C235.733 200.832 237.197 201.912 237.197 204.24C237.197 207.672 233.285 209.544 229.277 209.544C225.869 209.544 224.381 208.344 224.381 206.52C224.381 205.392 225.077 204.768 225.605 204.432C225.749 204.336 225.797 204.264 225.797 204.192C225.797 204.144 225.773 204.072 225.629 203.976C225.245 203.736 224.621 203.112 224.621 202.032C224.621 200.856 225.437 199.992 226.565 199.44C226.661 199.392 226.709 199.296 226.709 199.224C226.709 199.152 226.661 199.08 226.565 198.984C225.605 198.216 225.125 197.088 225.125 195.792C225.125 192.936 227.381 191.448 230.141 191.448ZM231.509 205.944C231.509 205.368 231.077 204.96 229.997 204.96C229.469 204.96 228.893 205.056 228.485 205.224C228.005 205.416 227.693 205.704 227.693 206.088C227.693 206.784 228.317 207.096 229.301 207.096C230.645 207.096 231.509 206.544 231.509 205.944ZM229.445 195.48C229.445 196.944 230.021 197.376 230.477 197.376C231.029 197.376 231.461 196.992 231.461 195.96C231.461 195.192 231.149 193.776 230.309 193.776C229.733 193.776 229.445 194.448 229.445 195.48ZM249.428 191.4C250.724 191.4 252.548 191.616 253.148 192.216C253.82 192.888 253.964 193.728 253.964 194.712C253.964 195.408 253.508 195.816 253.004 195.816C252.572 195.816 252.188 195.504 251.804 195.12C251.156 194.496 250.436 193.656 249.284 193.656C248.66 193.656 248.396 193.992 248.396 194.376C248.396 195.048 249.116 195.168 250.892 195.864C252.62 196.536 254.492 197.52 254.492 200.208C254.492 202.56 252.428 204.36 249.02 204.36C247.844 204.36 245.876 204.072 244.916 203.328C244.46 202.968 244.076 201.96 244.076 200.616C244.076 199.992 244.412 199.512 245.084 199.512C245.372 199.512 245.66 199.728 245.948 199.992C246.644 200.616 247.436 201.72 248.828 201.72C249.38 201.72 249.644 201.408 249.644 201C249.644 200.208 248.252 200.04 246.764 199.176C245.588 198.48 244.292 197.688 244.292 195.504C244.292 193.128 246.572 191.4 249.428 191.4ZM262.522 194.976C262.522 194.328 262.114 193.824 261.466 193.824C260.578 193.824 260.074 194.784 260.074 195.72C260.074 196.296 260.266 196.632 260.674 196.632C261.13 196.632 262.018 196.272 262.378 195.6C262.474 195.408 262.522 195.216 262.522 194.976ZM265.57 197.64C264.274 198.264 262.042 198.576 261.105 198.672C260.866 198.696 260.77 198.744 260.77 198.912C260.77 199.56 261.49 200.496 263.17 200.496C264.634 200.496 265.474 199.848 266.074 199.512C266.266 199.392 266.458 199.32 266.602 199.32C266.89 199.32 267.057 199.584 267.057 200.136C267.057 201.936 264.97 204.288 261.586 204.288C257.626 204.288 255.37 201.744 255.37 198.144C255.37 194.544 257.986 191.448 261.97 191.448C265.738 191.448 266.842 194.352 266.842 195.768C266.842 196.728 266.314 197.28 265.57 197.64ZM274.534 195.096C273.934 195.096 273.766 195.936 273.766 196.992V199.608C273.766 200.784 273.862 201.264 274.582 201.936C275.014 202.344 275.758 202.488 275.758 203.184C275.758 203.712 275.47 204.072 274.654 204.072C273.862 204.072 273.022 204 271.486 204C270.526 204 269.638 204.072 268.582 204.072C267.958 204.072 267.718 203.688 267.718 203.232C267.718 202.584 268.222 202.2 268.438 201.912C269.038 201.072 269.086 200.256 269.086 199.632V196.056C269.086 195.192 268.558 194.808 268.318 194.64C268.054 194.448 267.838 194.28 267.838 193.872C267.838 193.104 268.822 192.984 270.022 192.432C271.558 191.712 271.774 191.448 272.254 191.448C272.854 191.448 273.166 191.688 273.406 192.504C273.478 192.792 273.574 193.032 273.766 193.032C274.078 193.032 275.026 191.448 276.742 191.448C278.098 191.448 279.298 192.228 279.298 194.532C279.298 196.14 278.038 197.868 276.562 197.868C275.578 197.868 275.434 197.268 275.206 196.272C275.026 195.492 274.774 195.096 274.534 195.096ZM291.192 195.504C290.58 197.232 289.8 199.272 289.536 199.968C289.02 201.312 288.816 202.176 288.036 203.184C287.556 203.808 286.32 204.216 285.504 204.216C284.508 204.216 284.364 203.784 283.884 202.488C283.68 201.936 283.104 200.736 282.18 198.408C281.64 197.064 280.704 194.76 280.008 193.968C279.588 193.488 279.228 193.104 279.228 192.504C279.228 191.976 279.564 191.616 280.224 191.616C281.076 191.616 281.664 191.688 282.54 191.688C283.38 191.688 284.256 191.616 285.144 191.616C285.804 191.616 286.152 191.832 286.152 192.648C286.152 193.152 285.588 193.512 285.588 194.232C285.588 194.664 285.852 195.48 286.32 196.536C286.74 197.496 287.1 198.48 287.304 198.48C287.64 198.48 288.132 196.596 288.408 195.504C288.48 195.204 288.504 194.976 288.504 194.832C288.504 193.632 287.58 193.224 287.58 192.48C287.58 191.928 287.964 191.616 288.456 191.616C289.104 191.616 289.884 191.688 290.484 191.688C291.168 191.688 291.516 191.616 291.984 191.616C292.656 191.616 292.848 191.976 292.848 192.408C292.848 193.44 291.984 193.248 291.192 195.504ZM294.087 189.216C294.087 187.632 295.671 185.976 297.375 185.976C298.551 185.976 299.487 186.744 299.487 187.944C299.487 189.576 297.711 190.896 295.959 190.896C294.687 190.896 294.087 190.2 294.087 189.216ZM299.223 192.336C299.223 193.248 299.079 194.88 299.079 197.64V199.848C299.079 201.024 299.247 201.432 299.607 201.912C299.967 202.392 300.399 202.488 300.399 203.184C300.399 203.712 300.111 204.072 299.295 204.072C298.503 204.072 297.495 204 296.799 204C295.839 204 294.951 204.072 293.895 204.072C293.271 204.072 293.031 203.688 293.031 203.232C293.031 202.584 293.535 202.2 293.751 201.912C294.351 201.072 294.399 200.256 294.399 199.632V196.56C294.399 195.6 293.991 195.048 293.703 194.808C293.439 194.568 293.127 194.376 293.127 193.944C293.127 193.128 294.159 193.056 295.383 192.552C296.631 192.048 297.807 191.448 298.287 191.448C298.887 191.448 299.223 191.712 299.223 192.336ZM301.002 198.12C301.002 194.568 303.354 191.448 307.482 191.448C309.81 191.448 311.802 192.504 311.802 194.496C311.802 195.864 310.938 197.016 309.066 197.016C308.466 197.016 308.034 196.8 307.89 196.128C307.698 195.288 307.626 193.752 306.642 193.752C305.826 193.752 305.538 194.76 305.538 195.912C305.538 198.12 306.738 199.944 308.922 199.944C310.314 199.944 311.082 199.296 311.586 198.96C311.754 198.84 311.898 198.768 312.042 198.768C312.474 198.768 312.546 199.248 312.546 199.728C312.546 201.984 310.41 204.288 307.122 204.288C303.282 204.288 301.002 201.552 301.002 198.12ZM320.318 194.976C320.318 194.328 319.91 193.824 319.262 193.824C318.374 193.824 317.87 194.784 317.87 195.72C317.87 196.296 318.062 196.632 318.47 196.632C318.926 196.632 319.814 196.272 320.174 195.6C320.27 195.408 320.318 195.216 320.318 194.976ZM323.366 197.64C322.07 198.264 319.838 198.576 318.902 198.672C318.662 198.696 318.566 198.744 318.566 198.912C318.566 199.56 319.286 200.496 320.966 200.496C322.43 200.496 323.27 199.848 323.87 199.512C324.062 199.392 324.254 199.32 324.398 199.32C324.686 199.32 324.854 199.584 324.854 200.136C324.854 201.936 322.766 204.288 319.382 204.288C315.422 204.288 313.166 201.744 313.166 198.144C313.166 194.544 315.782 191.448 319.766 191.448C323.534 191.448 324.638 194.352 324.638 195.768C324.638 196.728 324.11 197.28 323.366 197.64ZM331.131 191.4C332.427 191.4 334.251 191.616 334.851 192.216C335.523 192.888 335.667 193.728 335.667 194.712C335.667 195.408 335.211 195.816 334.707 195.816C334.275 195.816 333.891 195.504 333.507 195.12C332.859 194.496 332.139 193.656 330.987 193.656C330.363 193.656 330.099 193.992 330.099 194.376C330.099 195.048 330.819 195.168 332.595 195.864C334.323 196.536 336.195 197.52 336.195 200.208C336.195 202.56 334.131 204.36 330.723 204.36C329.547 204.36 327.579 204.072 326.619 203.328C326.163 202.968 325.779 201.96 325.779 200.616C325.779 199.992 326.115 199.512 326.787 199.512C327.075 199.512 327.363 199.728 327.651 199.992C328.347 200.616 329.139 201.72 330.531 201.72C331.083 201.72 331.347 201.408 331.347 201C331.347 200.208 329.955 200.04 328.467 199.176C327.291 198.48 325.995 197.688 325.995 195.504C325.995 193.128 328.275 191.4 331.131 191.4Z" fill="#39564A"/>
    <path d="M14.7557 163.586C8.70456 163.586 5.58141 160.853 5.58141 156.754C5.58141 148.751 14.9509 148.36 17.098 134.501C18.2692 127.474 18.6596 115.567 18.6596 91.9484C18.6596 75.3567 18.4644 70.4767 18.074 65.2064C16.3172 45.6868 6.55739 46.2724 6.55739 37.0981C6.55739 32.8038 8.70456 29.6806 14.7557 29.6806C26.4675 29.6806 38.1793 30.2662 49.8911 30.2662C60.0413 30.2662 69.8011 29.6806 80.3418 29.6806C99.6662 29.6806 120.162 38.2693 120.162 61.3025C120.162 73.7951 112.159 84.5309 103.57 88.63C103.18 88.8252 102.594 89.2156 102.594 89.8012C102.594 90.3868 103.18 90.582 103.57 90.7772C117.039 95.8523 128.555 107.759 128.555 123.765C128.555 157.925 100.642 163.586 76.4378 163.586C66.2876 163.586 53.2094 163 42.864 163C32.9089 163 24.9059 163.586 14.7557 163.586ZM81.9033 122.204C81.9033 112.249 77.2186 105.807 71.7531 102.684C69.0203 101.123 65.8972 100.342 63.1644 100.342C60.6269 100.342 60.4317 102.294 60.4317 113.03V128.645C60.4317 139.186 62.1885 140.552 68.0444 140.552C78.585 140.552 81.9033 133.135 81.9033 122.204ZM60.4317 55.2514V75.3567C60.4317 79.0654 61.6029 79.651 66.4828 79.651C69.9963 79.651 72.7291 78.4798 74.681 76.5279C77.0234 73.9903 78.1946 70.0864 78.1946 65.4016C78.1946 56.0322 71.9483 51.1523 64.726 51.1523C62.5788 51.1523 60.4317 52.1283 60.4317 55.2514ZM190.009 127.279C190.009 119.862 189.228 118.886 188.447 118.886C187.471 118.886 185.324 119.666 182.786 121.033C178.492 123.375 173.612 127.474 173.612 133.33C173.612 136.844 175.369 140.552 180.249 140.552C188.057 140.552 190.009 133.33 190.009 127.279ZM162.486 108.931C173.612 104.441 183.372 103.075 186.69 100.342C188.252 99.1707 189.618 96.4379 189.618 89.2156C189.618 82.1886 186.3 77.5038 181.03 77.5038C176.15 77.5038 172.051 82.1886 168.732 92.534C166.78 98.7803 163.852 103.855 155.459 103.855C146.285 103.855 139.258 97.6091 139.258 86.4829C139.258 73.7951 153.897 60.7169 181.03 60.7169C203.673 60.7169 228.072 68.5248 228.072 99.5611C228.072 111.468 227.096 117.91 227.096 129.817C227.096 132.94 228.072 137.234 232.562 137.234C233.928 137.234 235.099 136.844 236.466 136.844C238.027 136.844 238.808 139.186 238.808 141.333C238.808 155.387 227.291 164.952 213.042 164.952C202.306 164.952 196.841 161.438 193.327 156.363C192.742 155.583 192.156 154.607 191.375 154.607C190.399 154.607 189.618 155.387 188.838 156.168C183.177 161.243 173.417 165.342 164.633 165.342C148.237 165.342 135.549 157.144 135.549 140.552C135.549 124.937 145.699 115.762 162.486 108.931ZM351.998 95.2667C351.998 107.955 349.46 125.132 349.46 132.745C349.46 138.21 351.022 143.676 354.34 146.799C358.049 150.312 361.172 151.093 361.172 156.363C361.172 160.658 358.049 163.586 351.412 163.586C344.971 163.586 338.139 163 332.478 163C324.67 163 321.937 163.586 313.349 163.586C308.274 163.586 306.322 160.462 306.322 156.754C306.322 151.483 308.078 147.384 309.054 144.652C311.006 139.186 312.763 121.813 312.763 108.15C312.763 92.9244 309.054 86.4829 300.661 86.4829C297.147 86.4829 290.315 88.8252 290.315 100.732V129.231C290.315 138.796 290.511 142.114 293.439 146.018C296.367 149.922 299.88 150.703 299.88 156.363C299.88 160.658 297.538 163.586 290.901 163.586C284.46 163.586 277.432 163 271.772 163C263.964 163 256.742 163.586 248.153 163.586C243.078 163.586 241.126 160.462 241.126 156.754C241.126 151.483 245.225 148.36 246.982 146.018C251.862 139.186 252.252 132.549 252.252 127.474V98.3899C252.252 91.3628 247.958 88.2397 246.006 86.8733C243.859 85.3117 242.102 83.9453 242.102 80.627C242.102 74.3807 250.105 73.4047 259.865 68.9152C272.357 63.0593 274.114 60.9121 278.018 60.9121C282.898 60.9121 285.436 62.8641 287.388 69.5008C287.973 71.8431 288.754 73.7951 290.315 73.7951C292.853 73.7951 303.784 60.9121 321.157 60.9121C344.385 60.9121 351.998 75.1615 351.998 95.2667ZM410.343 60.9121C424.593 60.9121 437.866 64.6209 445.088 64.6209C457.581 64.6209 460.899 60.9121 465.389 60.9121C467.926 60.9121 469.488 62.6689 469.488 66.5728C469.488 70.6719 468.902 74.9663 467.731 78.4798C466.95 81.2126 464.803 87.4589 459.533 87.4589C457.386 87.4589 454.653 86.4829 453.677 86.4829C452.896 86.4829 452.701 86.8733 452.701 87.4589C452.701 88.8252 454.458 91.9484 454.458 96.0475C454.458 117.714 435.719 130.207 412.295 130.207C408.391 130.207 405.073 129.817 403.121 129.817C399.412 129.817 395.703 131.964 395.703 135.477C395.703 138.991 398.827 140.943 403.902 140.943C410.929 140.943 423.421 137.234 436.5 137.234C455.824 137.234 467.731 146.018 467.731 164.952C467.731 192.865 435.914 208.09 403.316 208.09C375.598 208.09 363.496 198.331 363.496 183.496C363.496 174.321 369.157 169.246 373.451 166.514C374.622 165.733 375.013 165.147 375.013 164.562C375.013 164.171 374.817 163.586 373.646 162.805C370.523 160.853 365.448 155.778 365.448 146.994C365.448 137.429 372.085 130.402 381.259 125.913C382.04 125.522 382.43 124.741 382.43 124.156C382.43 123.57 382.04 122.985 381.259 122.204C373.451 115.958 369.547 106.783 369.547 96.2427C369.547 73.0143 387.896 60.9121 410.343 60.9121ZM421.469 178.811C421.469 174.126 417.956 170.808 409.172 170.808C404.878 170.808 400.193 171.589 396.875 172.955C392.971 174.517 390.433 176.859 390.433 179.982C390.433 185.643 395.508 188.18 403.511 188.18C414.442 188.18 421.469 183.691 421.469 178.811ZM404.682 93.7052C404.682 105.612 409.367 109.126 413.076 109.126C417.565 109.126 421.079 106.003 421.079 97.6091C421.079 91.3628 418.541 79.8462 411.71 79.8462C407.025 79.8462 404.682 85.3117 404.682 93.7052ZM539.879 60.5217C550.42 60.5217 565.255 62.2785 570.135 67.1584C575.6 72.6239 576.771 79.4558 576.771 87.4589C576.771 93.1196 573.063 96.4379 568.963 96.4379C565.45 96.4379 562.327 93.9004 559.204 90.7772C553.933 85.7021 548.077 78.8702 538.708 78.8702C533.633 78.8702 531.486 81.603 531.486 84.7261C531.486 90.1916 537.342 91.1676 551.786 96.8283C565.84 102.294 581.066 110.297 581.066 132.159C581.066 151.288 564.279 165.928 536.561 165.928C526.996 165.928 510.99 163.586 503.182 157.534C499.473 154.607 496.35 146.408 496.35 135.477C496.35 130.402 499.083 126.498 504.548 126.498C506.891 126.498 509.233 128.255 511.576 130.402C517.236 135.477 523.678 144.456 534.999 144.456C539.489 144.456 541.636 141.919 541.636 138.6C541.636 132.159 530.314 130.793 518.212 123.765C508.648 118.105 498.107 111.663 498.107 93.9004C498.107 74.5759 516.651 60.5217 539.879 60.5217Z" fill="#39564A"/>
    <path d="M487.666 80.5406C488.088 81.0027 488.873 81.3038 489.496 81.2431C490.119 81.1823 490.762 80.6793 491.063 79.895L507.843 35.793C507.843 35.793 507.843 35.793 507.762 35.6121C507.762 35.6121 507.762 35.6121 507.943 35.5315L518.36 8.78461C518.862 7.47743 518.841 5.96955 518.277 4.70328C517.713 3.43701 516.607 2.41237 515.38 2.09148C514.073 1.58971 512.746 1.53026 511.48 2.09404C510.213 2.65782 509.37 3.68374 508.968 4.72948C508.968 4.72948 508.787 4.81002 508.868 4.99092L499.234 30.0887L491.391 27.078C490.868 26.8773 490.425 26.8575 489.883 27.0991C489.34 27.3407 489.059 27.6827 488.858 28.2056C474.647 64.4447 487.163 79.8975 487.666 80.5406ZM512.266 6.29554L512.447 6.215C512.447 6.215 512.729 5.87302 513.09 5.71194C513.452 5.55086 513.714 5.65122 513.975 5.75158C514.237 5.85193 514.498 5.95229 514.659 6.31408C514.82 6.67587 514.72 6.9373 514.619 7.19874L504.985 32.2965L502.632 31.3933L512.266 6.29554ZM491.715 31.702L503.48 36.218L488.909 74.5685C486.512 68.6993 483.226 54.9896 491.715 31.702Z" fill="#39564A"/>
</svg>