<svg width="18" height="19" viewBox="0 0 18 19" fill="none" xmlns="http://www.w3.org/2000/svg">
    <mask id="mask0_94_737" style="mask-type:luminance" maskUnits="userSpaceOnUse" x="0" y="0" width="18" height="19">
    <path d="M0 0.145813H18V18.1458H0V0.145813Z" fill="white"/>
    </mask>
    <g mask="url(#mask0_94_737)">
    <path d="M9 0.977544C10.1034 0.977544 11.1731 1.19389 12.1803 1.61937C13.1514 2.03043 14.0264 2.61937 14.7764 3.36937C15.5264 4.11937 16.1154 4.99437 16.5264 5.96552C16.9519 6.97274 17.1683 8.04245 17.1683 9.14581C17.1683 10.2492 16.9519 11.3189 16.5264 12.3261C16.1154 13.2973 15.5264 14.1723 14.7764 14.9223C14.0264 15.6723 13.1514 16.2612 12.1803 16.6723C11.1731 17.1001 10.1034 17.3141 9 17.3141C7.89663 17.3141 6.82692 17.1001 5.81971 16.6723C4.84856 16.2612 3.97356 15.6723 3.22356 14.9223C2.47356 14.1723 1.88462 13.2997 1.47356 12.3261C1.04808 11.3189 0.831731 10.2492 0.831731 9.14581C0.831731 8.04245 1.04808 6.97274 1.47356 5.96793C1.88462 4.99437 2.47356 4.12177 3.22356 3.36937C3.97356 2.61937 4.84856 2.03043 5.81971 1.61937C6.82692 1.19389 7.89663 0.977544 9 0.977544ZM9 0.145813C4.02885 0.145813 0 4.17466 0 9.14581C0 14.117 4.02885 18.1458 9 18.1458C13.9712 18.1458 18 14.117 18 9.14581C18 4.17466 13.9712 0.145813 9 0.145813ZM4.23317 6.02081C4.14663 5.9487 4.13462 5.82129 4.20433 5.73476C4.36298 5.53043 4.59856 5.41504 4.85337 5.41504H13.1466C13.4014 5.41504 13.637 5.53043 13.7957 5.73476C13.8654 5.82129 13.8534 5.9487 13.7668 6.02081C12.4014 7.17706 10.0048 9.21072 9.30048 9.84774C9.20673 9.93187 9.10577 9.97514 9 9.97514C8.89423 9.97514 8.79327 9.93187 8.69952 9.84533C7.99519 9.21072 5.59856 7.17706 4.23317 6.02081ZM13.8558 7.06889C13.7813 7.03524 13.6947 7.04726 13.6346 7.10014C12.1202 8.38379 10.1851 10.028 9.57692 10.5761C9.23558 10.8838 8.76202 10.8838 8.42067 10.5761C7.77163 9.99197 5.60096 8.14822 4.36538 7.10014C4.30529 7.04726 4.21635 7.03524 4.14423 7.06889C4.07212 7.10254 4.02404 7.17706 4.02404 7.25639V12.0497C4.02404 12.5064 4.39663 12.879 4.85337 12.879H13.1442C13.6034 12.879 13.9736 12.5064 13.9736 12.0497V7.25639C13.976 7.17706 13.9279 7.10254 13.8558 7.06889Z" fill="#39564A"/>
    </g>
</svg>