<svg width="12" height="18" viewBox="0 0 12 18" fill="none" xmlns="http://www.w3.org/2000/svg">
    <mask id="mask0_94_766" style="mask-type:luminance" maskUnits="userSpaceOnUse" x="0" y="0" width="12" height="17">
        <path d="M0 0H12V16.0946H0V0Z" fill="white"/>
    </mask>
    <g mask="url(#mask0_94_766)">
        <path d="M6.03113 15.8043C5.20421 15.8043 4.48065 15.3552 4.09363 14.6034L1.0143 8.60923C0.0719973 6.77574 0.127285 4.61971 1.16575 2.8408C2.2018 1.06189 4.01911 0 6.03113 0C8.04075 0 9.86046 1.06189 10.8965 2.8408C11.9326 4.61723 11.9903 6.77574 11.048 8.60675L7.96623 14.6034C7.58161 15.3552 6.85565 15.8043 6.03113 15.8043ZM6.03113 0.535906C4.20421 0.535906 2.55036 1.50103 1.60805 3.1162C0.668151 4.73136 0.615266 6.69139 1.47104 8.35865L4.55277 14.3529C4.84604 14.9285 5.40132 15.2708 6.03113 15.2708C6.66094 15.2708 7.21382 14.9285 7.5095 14.3529L10.5888 8.35865C11.4446 6.69139 11.3941 4.73136 10.4518 3.1162C9.5119 1.50103 7.85805 0.535906 6.03113 0.535906Z" fill="#39564A"/>
    </g>
    <path d="M9.30521 5.65924C9.30521 5.88502 9.28598 6.10583 9.24271 6.32664C9.19944 6.54745 9.13694 6.76083 9.05521 6.96675C8.97108 7.17516 8.87012 7.37116 8.74752 7.55972C8.62733 7.7458 8.49031 7.91699 8.33646 8.07578C8.18262 8.23457 8.01435 8.37599 7.83406 8.50252C7.65377 8.62657 7.46387 8.73078 7.26194 8.81761C7.06002 8.90445 6.85329 8.96896 6.64175 9.01113C6.42781 9.05579 6.21146 9.07812 5.99512 9.07812C5.77637 9.07812 5.56242 9.05579 5.34848 9.01113C5.13454 8.96896 4.92781 8.90445 4.72589 8.81761C4.52637 8.73078 4.33406 8.62657 4.15377 8.50252C3.97348 8.37599 3.80521 8.23457 3.65137 8.07578C3.49992 7.91699 3.3605 7.7458 3.24031 7.55972C3.12012 7.37116 3.01675 7.17516 2.93502 6.96675C2.85089 6.76083 2.78839 6.54745 2.74512 6.32664C2.70425 6.10583 2.68262 5.88502 2.68262 5.65924C2.68262 5.43595 2.70425 5.21265 2.74512 4.99184C2.78839 4.77351 2.85089 4.55765 2.93502 4.35173C3.01675 4.14332 3.12012 3.94732 3.24031 3.76124C3.3605 3.57268 3.49992 3.40149 3.65137 3.2427C3.80521 3.08391 3.97348 2.94249 4.15377 2.81596C4.33406 2.69191 4.52637 2.5877 4.72589 2.50087C4.92781 2.41651 5.13454 2.34952 5.34848 2.30734C5.56242 2.26269 5.77637 2.24036 5.99512 2.24036C6.21146 2.24036 6.42781 2.26269 6.64175 2.30734C6.85329 2.34952 7.06002 2.41651 7.26194 2.50087C7.46387 2.5877 7.65377 2.69191 7.83406 2.81596C8.01435 2.94249 8.18262 3.08391 8.33646 3.2427C8.49031 3.40149 8.62733 3.57268 8.74752 3.76124C8.87012 3.94732 8.97108 4.14332 9.05521 4.35173C9.13694 4.55765 9.19944 4.77351 9.24271 4.99184C9.28598 5.21265 9.30521 5.43595 9.30521 5.65924Z" fill="#39564A"/>
    <mask id="mask1_94_766" style="mask-type:luminance" maskUnits="userSpaceOnUse" x="0" y="13" width="12" height="5">
        <path d="M0 13.554H12V18H0V13.554Z" fill="white"/>
    </mask>
    <g mask="url(#mask1_94_766)">
        <path d="M5.95196 17.6303C3.06735 17.6303 0.00244141 16.9207 0.00244141 15.6083C0.00244141 14.5166 2.08177 13.9013 4.02888 13.6879L4.08177 14.2214C1.76927 14.4719 0.521672 15.1245 0.521672 15.6083C0.521672 16.2285 2.58658 17.0919 5.95196 17.0919C9.31734 17.0919 11.3822 16.2285 11.3822 15.6083C11.3822 15.1418 10.1851 14.5017 7.96879 14.2362L8.02648 13.7053C8.93513 13.812 11.9015 14.2685 11.9015 15.6083C11.9015 16.9207 8.83658 17.6303 5.95196 17.6303Z" fill="#39564A"/>
    </g>
</svg>