<svg width="18" height="18" viewBox="0 0 18 18" fill="none" xmlns="http://www.w3.org/2000/svg">
    <mask id="mask0_94_765" style="mask-type:luminance" maskUnits="userSpaceOnUse" x="0" y="0" width="18" height="18">
    <path d="M0 0H18V18H0V0Z" fill="white"/>
    </mask>
    <g mask="url(#mask0_94_765)">
    <path d="M8.89091 0.00445557C3.99124 0.00445557 0.00439453 3.98883 0.00439453 8.89097C0.00439453 13.7906 3.99124 17.775 8.89091 17.775C13.7906 17.775 17.7774 13.7906 17.7774 8.89097C17.7774 3.98883 13.7906 0.00445557 8.89091 0.00445557ZM8.89091 0.59656C13.4723 0.59656 17.1853 4.30955 17.1853 8.89097C17.1853 13.4699 13.4723 17.1829 8.89091 17.1829C4.31196 17.1829 0.598967 13.4699 0.598967 8.89097C0.598967 4.30955 4.31196 0.59656 8.89091 0.59656Z" fill="#39564A"/>
    </g>
    <path d="M13.7814 13.5592C14.4229 12.9029 13.6877 12.2738 13.1276 11.6941C12.6515 11.1982 11.8645 10.3668 11.1021 10.458C10.6778 10.5074 10.3472 10.9367 9.9278 11.0699C9.38997 11.2401 8.87188 11.1192 8.44013 10.764C8.15148 10.5247 7.84556 10.236 7.56431 9.93255C7.27566 9.63403 7.00428 9.31331 6.78224 9.01232C6.44918 8.56331 6.35543 8.03781 6.55527 7.51232C6.71069 7.10032 7.15724 6.79193 7.22879 6.37252C7.35954 5.61512 6.57254 4.78617 6.10379 4.28288C5.55362 3.69324 4.96398 2.92351 4.27566 3.53041C4.26579 3.53782 3.89573 3.89061 3.88586 3.89801C3.19014 4.54933 3.00264 5.61758 3.163 6.52301C3.22221 6.8536 3.31349 7.17679 3.43191 7.49012C3.95987 8.9087 4.95412 10.2804 6.01744 11.398C7.07583 12.5205 8.39326 13.5863 9.77977 14.1908C10.0882 14.324 10.4064 14.4325 10.7321 14.509C11.6276 14.7187 12.7058 14.588 13.3916 13.9293C13.4015 13.9194 13.7715 13.5691 13.7814 13.5592Z" fill="#39564A"/>
    <path d="M12.1477 9.18011C11.9923 9.18011 11.8615 9.05676 11.8517 8.90133C11.8122 8.24015 11.5408 7.61103 11.0869 7.12995C10.6305 6.65133 10.0186 6.34541 9.3599 6.2714C9.19707 6.25166 9.08111 6.1061 9.09838 5.94327C9.11565 5.78044 9.26368 5.66449 9.42651 5.68176C10.2234 5.77057 10.966 6.14064 11.5161 6.72288C12.0663 7.30265 12.3969 8.06498 12.4438 8.86432C12.4536 9.02962 12.3278 9.17024 12.165 9.17765C12.1601 9.18011 12.1527 9.18011 12.1477 9.18011Z" fill="#39564A"/>
    <path d="M14.0158 9.46131C13.8603 9.46131 13.7296 9.34043 13.7197 9.18253C13.6482 7.97858 13.1523 6.83385 12.3233 5.95802C11.4944 5.08467 10.3768 4.5271 9.17777 4.39141C9.01494 4.37414 8.89898 4.22611 8.91625 4.06329C8.93599 3.90046 9.08155 3.78203 9.24438 3.80177C10.5815 3.95227 11.8299 4.57398 12.7526 5.55095C13.6778 6.52546 14.2329 7.80342 14.3118 9.14799C14.3217 9.31082 14.1959 9.45145 14.033 9.46131C14.0281 9.46131 14.0207 9.46131 14.0158 9.46131Z" fill="#39564A"/>
</svg>