<svg width="577" height="265" viewBox="0 0 577 265" fill="none" xmlns="http://www.w3.org/2000/svg">
<path d="M18.5325 242.865C18.5325 244.65 19.3132 246.044 20.3171 247.327C20.9306 248.108 21.9902 248.498 21.9902 249.948C21.9902 251.008 21.321 252.012 19.4248 252.012C17.5844 252.012 15.242 251.844 13.6247 251.844C11.3938 251.844 9.33033 252.012 6.87643 252.012C5.4264 252.012 4.86869 251.119 4.86869 250.06C4.86869 248.554 6.03987 247.661 6.54181 246.992C7.93607 245.04 8.04761 243.144 8.04761 241.694V221.226C8.04761 219.609 6.87643 218.717 6.31873 218.326C5.70525 217.88 5.14755 217.49 5.14755 216.542C5.14755 214.924 7.48991 214.59 10.3342 213.418C13.2343 212.247 15.5209 210.853 17.0267 210.853C18.2536 210.853 19.2017 211.466 19.2017 212.916C19.2017 217.099 18.644 224.126 18.644 234.277C18.644 234.946 18.9229 235.113 19.0902 235.113C19.9825 235.113 24.2211 232.101 24.2211 229.369C24.2211 228.198 21.9902 226.469 21.9902 225.13C21.9902 223.513 23.273 223.067 24.3884 223.067C26.5076 223.067 28.5712 223.234 30.802 223.234C33.0328 223.234 33.8136 222.955 36.1002 222.955C36.9925 222.955 39.0002 222.955 39.0002 225.019C39.0002 226.413 37.7175 227.305 36.1002 228.253C33.5905 229.703 30.5231 231.544 28.125 233.496C27.8461 233.719 27.7346 233.83 27.7346 233.998C27.7346 234.221 27.9019 234.332 28.1808 234.444C35.1521 237.232 34.0924 243.367 38.331 247.048C38.6656 247.327 40.3387 248.386 40.3387 250.004C40.3387 250.617 40.0599 252.012 38.3868 252.012C36.8252 252.012 34.0924 251.9 31.9174 251.9C29.4635 251.9 27.9577 252.123 26.5634 252.123C25.0018 252.123 23.9422 251.398 23.9422 250.06C23.9422 249.167 24.2211 248.665 24.2211 247.829C24.2211 246.044 23.4403 244.371 22.771 243.144C21.9345 241.638 20.6517 240.69 19.871 240.69C18.6998 240.69 18.5325 241.582 18.5325 242.865ZM43.0506 217.49C43.0506 213.809 46.7314 209.961 50.6911 209.961C53.4239 209.961 55.5989 211.745 55.5989 214.534C55.5989 218.326 51.4719 221.394 47.4007 221.394C44.4448 221.394 43.0506 219.776 43.0506 217.49ZM54.9854 224.74C54.9854 226.859 54.6508 230.651 54.6508 237.065V242.196C54.6508 244.929 55.0412 245.877 55.8778 246.992C56.7143 248.108 57.7182 248.331 57.7182 249.948C57.7182 251.175 57.049 252.012 55.1528 252.012C53.3123 252.012 50.97 251.844 49.3526 251.844C47.1218 251.844 45.0583 252.012 42.6044 252.012C41.1544 252.012 40.5967 251.119 40.5967 250.06C40.5967 248.554 41.7678 247.661 42.2698 246.992C43.664 245.04 43.7756 243.144 43.7756 241.694V234.555C43.7756 232.325 42.8275 231.042 42.1582 230.484C41.5448 229.926 40.8197 229.48 40.8197 228.476C40.8197 226.58 43.2179 226.413 46.0622 225.242C48.9622 224.071 51.695 222.676 52.8104 222.676C54.2047 222.676 54.9854 223.29 54.9854 224.74ZM72.73 230.986C72.6185 232.38 72.507 235.336 72.507 238.348C72.507 241.582 73.6781 243.646 76.0205 243.646C77.0244 243.646 77.5821 243.2 78.084 242.977C78.3071 242.865 78.4744 242.809 78.7533 242.809C79.311 242.809 79.7571 243.256 79.7571 244.538C79.7571 245.263 79.534 246.044 79.1994 246.881C78.084 249.39 74.9051 252.402 69.8858 252.402C63.4721 252.402 61.4086 247.996 61.4086 242.084C61.4086 239.631 61.7433 236.229 61.7433 232.101C61.7433 230.819 61.3529 230.038 60.2375 229.815C59.1778 229.648 58.2855 229.146 58.2855 228.03C58.2855 226.803 58.4528 225.465 59.7355 224.74C61.9663 223.457 64.0856 221.784 65.5914 220.445C68.1011 218.215 68.6588 216.207 70.6108 216.207C71.8935 216.207 73.0089 217.099 73.0089 219.33C73.0089 220.669 72.73 223.513 72.73 223.792C72.73 223.959 72.7858 224.071 73.0089 224.071C73.7339 224.071 75.6301 223.847 76.4667 223.847C78.084 223.847 78.9763 224.294 78.9763 226.246C78.9763 227.417 78.3629 229.146 77.5821 230.038C77.359 230.261 76.9128 230.484 76.1878 230.484C75.5186 230.484 74.3474 230.317 73.2878 230.317C73.1204 230.317 72.7858 230.373 72.73 230.986ZM80.5793 238.18C80.5793 229.926 86.0448 222.676 95.6373 222.676C101.047 222.676 105.676 225.13 105.676 229.759C105.676 232.938 103.668 235.615 99.3182 235.615C97.9239 235.615 96.9201 235.113 96.5854 233.552C96.1393 231.6 95.972 228.03 93.6854 228.03C91.7892 228.03 91.1199 230.373 91.1199 233.05C91.1199 238.18 93.9085 242.419 98.9836 242.419C102.218 242.419 104.003 240.913 105.174 240.132C105.564 239.854 105.899 239.686 106.234 239.686C107.238 239.686 107.405 240.802 107.405 241.917C107.405 247.16 102.441 252.513 94.8008 252.513C85.8775 252.513 80.5793 246.156 80.5793 238.18ZM111.092 241.694V221.226C111.092 219.609 109.921 218.717 109.363 218.326C108.75 217.88 108.192 217.49 108.192 216.542C108.192 214.924 110.535 214.59 113.379 213.418C116.279 212.247 118.566 210.853 120.071 210.853C121.298 210.853 122.246 211.466 122.246 212.916C122.246 214.813 121.521 218.884 121.521 225.186C121.521 226.19 121.744 226.357 121.968 226.357C122.693 226.357 125.816 222.676 130.779 222.676C137.416 222.676 139.591 226.748 139.591 232.492C139.591 236.117 138.866 241.025 138.866 243.2C138.866 244.761 139.312 246.323 140.26 247.215C141.32 248.219 142.212 248.442 142.212 249.948C142.212 251.175 141.32 252.012 139.424 252.012C137.583 252.012 135.631 251.844 134.014 251.844C131.783 251.844 131.002 252.012 128.548 252.012C127.098 252.012 126.541 251.119 126.541 250.06C126.541 248.554 127.043 247.383 127.322 246.602C127.879 245.04 128.381 240.077 128.381 236.173C128.381 231.823 127.322 229.982 124.923 229.982C123.92 229.982 121.968 230.651 121.968 234.053V242.196C121.968 244.929 122.023 245.877 122.86 246.992C123.696 248.108 124.7 248.331 124.7 249.948C124.7 251.175 124.031 252.012 122.135 252.012C120.294 252.012 118.287 251.844 116.669 251.844C114.439 251.844 112.375 252.012 109.921 252.012C108.471 252.012 107.913 251.119 107.913 250.06C107.913 248.554 109.085 247.661 109.586 246.992C110.981 245.04 111.092 243.144 111.092 241.694ZM160.159 230.875C160.159 229.369 159.21 228.198 157.705 228.198C155.641 228.198 154.47 230.428 154.47 232.603C154.47 233.942 154.916 234.723 155.864 234.723C156.924 234.723 158.987 233.886 159.824 232.325C160.047 231.878 160.159 231.432 160.159 230.875ZM167.241 237.065C164.23 238.515 159.043 239.24 156.868 239.463C156.31 239.519 156.087 239.631 156.087 240.021C156.087 241.527 157.76 243.702 161.664 243.702C165.066 243.702 167.018 242.196 168.413 241.415C168.859 241.136 169.305 240.969 169.64 240.969C170.309 240.969 170.699 241.582 170.699 242.865C170.699 247.048 165.847 252.513 157.984 252.513C148.781 252.513 143.539 246.602 143.539 238.236C143.539 229.871 149.618 222.676 158.876 222.676C167.632 222.676 170.197 229.425 170.197 232.715C170.197 234.946 168.97 236.229 167.241 237.065ZM203.912 232.492C203.912 236.117 203.187 241.025 203.187 243.2C203.187 244.761 203.633 246.323 204.581 247.215C205.641 248.219 206.533 248.442 206.533 249.948C206.533 251.175 205.641 252.012 203.745 252.012C201.905 252.012 199.953 251.844 198.335 251.844C196.104 251.844 195.324 252.012 192.87 252.012C191.42 252.012 190.862 251.119 190.862 250.06C190.862 248.554 191.364 247.383 191.643 246.602C192.2 245.04 192.702 240.077 192.702 236.173C192.702 231.823 191.643 229.982 189.245 229.982C188.241 229.982 186.289 230.651 186.289 234.053V242.196C186.289 244.929 186.345 245.877 187.181 246.992C188.018 248.108 189.022 248.331 189.022 249.948C189.022 251.175 188.352 252.012 186.456 252.012C184.616 252.012 182.608 251.844 180.991 251.844C178.76 251.844 176.696 252.012 174.242 252.012C172.792 252.012 172.235 251.119 172.235 250.06C172.235 248.554 173.406 247.661 173.908 246.992C175.302 245.04 175.414 243.144 175.414 241.694V233.384C175.414 231.376 174.187 230.484 173.629 230.094C173.015 229.648 172.513 229.257 172.513 228.309C172.513 226.524 174.8 226.246 177.589 224.963C181.158 223.29 181.66 222.676 182.775 222.676C184.169 222.676 184.895 223.234 185.452 225.13C185.62 225.799 185.843 226.357 186.289 226.357C187.014 226.357 190.137 222.676 195.101 222.676C201.737 222.676 203.912 226.748 203.912 232.492Z" fill="#F1E1D3"/>
<path d="M9.75565 182.586C3.70456 182.586 0.581408 179.853 0.581408 175.754C0.581408 167.751 9.95085 167.36 12.098 153.501C13.2692 146.474 13.6596 134.567 13.6596 110.948C13.6596 94.3567 13.4644 89.4767 13.074 84.2064C11.3172 64.6868 1.55739 65.2724 1.55739 56.0981C1.55739 51.8038 3.70456 48.6806 9.75565 48.6806C21.4675 48.6806 33.1793 49.2662 44.8911 49.2662C55.0413 49.2662 64.8011 48.6806 75.3418 48.6806C94.6662 48.6806 115.162 57.2693 115.162 80.3025C115.162 92.7951 107.159 103.531 98.5702 107.63C98.1798 107.825 97.5942 108.216 97.5942 108.801C97.5942 109.387 98.1798 109.582 98.5702 109.777C112.039 114.852 123.555 126.759 123.555 142.765C123.555 176.925 95.6422 182.586 71.4378 182.586C61.2876 182.586 48.2094 182 37.864 182C27.9089 182 19.9059 182.586 9.75565 182.586ZM76.9033 141.204C76.9033 131.249 72.2186 124.807 66.7531 121.684C64.0203 120.123 60.8972 119.342 58.1644 119.342C55.6269 119.342 55.4317 121.294 55.4317 132.03V147.645C55.4317 158.186 57.1885 159.552 63.0444 159.552C73.585 159.552 76.9033 152.135 76.9033 141.204ZM55.4317 74.2514V94.3567C55.4317 98.0654 56.6029 98.651 61.4828 98.651C64.9963 98.651 67.7291 97.4798 69.681 95.5279C72.0234 92.9903 73.1946 89.0864 73.1946 84.4016C73.1946 75.0322 66.9483 70.1523 59.726 70.1523C57.5788 70.1523 55.4317 71.1283 55.4317 74.2514ZM185.009 146.279C185.009 138.862 184.228 137.886 183.447 137.886C182.471 137.886 180.324 138.666 177.786 140.033C173.492 142.375 168.612 146.474 168.612 152.33C168.612 155.844 170.369 159.552 175.249 159.552C183.057 159.552 185.009 152.33 185.009 146.279ZM157.486 127.931C168.612 123.441 178.372 122.075 181.69 119.342C183.252 118.171 184.618 115.438 184.618 108.216C184.618 101.189 181.3 96.5038 176.03 96.5038C171.15 96.5038 167.051 101.189 163.732 111.534C161.78 117.78 158.852 122.855 150.459 122.855C141.285 122.855 134.258 116.609 134.258 105.483C134.258 92.7951 148.897 79.7169 176.03 79.7169C198.673 79.7169 223.072 87.5248 223.072 118.561C223.072 130.468 222.096 136.91 222.096 148.817C222.096 151.94 223.072 156.234 227.562 156.234C228.928 156.234 230.099 155.844 231.466 155.844C233.027 155.844 233.808 158.186 233.808 160.333C233.808 174.387 222.291 183.952 208.042 183.952C197.306 183.952 191.841 180.438 188.327 175.363C187.742 174.583 187.156 173.607 186.375 173.607C185.399 173.607 184.618 174.387 183.838 175.168C178.177 180.243 168.417 184.342 159.633 184.342C143.237 184.342 130.549 176.144 130.549 159.552C130.549 143.937 140.699 134.762 157.486 127.931ZM346.998 114.267C346.998 126.955 344.46 144.132 344.46 151.745C344.46 157.21 346.022 162.676 349.34 165.799C353.049 169.312 356.172 170.093 356.172 175.363C356.172 179.658 353.049 182.586 346.412 182.586C339.971 182.586 333.139 182 327.478 182C319.67 182 316.937 182.586 308.349 182.586C303.274 182.586 301.322 179.462 301.322 175.754C301.322 170.483 303.078 166.384 304.054 163.652C306.006 158.186 307.763 140.813 307.763 127.15C307.763 111.924 304.054 105.483 295.661 105.483C292.147 105.483 285.315 107.825 285.315 119.732V148.231C285.315 157.796 285.511 161.114 288.439 165.018C291.367 168.922 294.88 169.703 294.88 175.363C294.88 179.658 292.538 182.586 285.901 182.586C279.46 182.586 272.432 182 266.772 182C258.964 182 251.742 182.586 243.153 182.586C238.078 182.586 236.126 179.462 236.126 175.754C236.126 170.483 240.225 167.36 241.982 165.018C246.862 158.186 247.252 151.549 247.252 146.474V117.39C247.252 110.363 242.958 107.24 241.006 105.873C238.859 104.312 237.102 102.945 237.102 99.627C237.102 93.3807 245.105 92.4047 254.865 87.9152C267.357 82.0593 269.114 79.9121 273.018 79.9121C277.898 79.9121 280.436 81.8641 282.388 88.5008C282.973 90.8431 283.754 92.7951 285.315 92.7951C287.853 92.7951 298.784 79.9121 316.157 79.9121C339.385 79.9121 346.998 94.1615 346.998 114.267ZM405.343 79.9121C419.593 79.9121 432.866 83.6209 440.088 83.6209C452.581 83.6209 455.899 79.9121 460.389 79.9121C462.926 79.9121 464.488 81.6689 464.488 85.5728C464.488 89.6719 463.902 93.9663 462.731 97.4798C461.95 100.213 459.803 106.459 454.533 106.459C452.386 106.459 449.653 105.483 448.677 105.483C447.896 105.483 447.701 105.873 447.701 106.459C447.701 107.825 449.458 110.948 449.458 115.048C449.458 136.714 430.719 149.207 407.295 149.207C403.391 149.207 400.073 148.817 398.121 148.817C394.412 148.817 390.703 150.964 390.703 154.477C390.703 157.991 393.827 159.943 398.902 159.943C405.929 159.943 418.421 156.234 431.5 156.234C450.824 156.234 462.731 165.018 462.731 183.952C462.731 211.865 430.914 227.09 398.316 227.09C370.598 227.09 358.496 217.331 358.496 202.496C358.496 193.321 364.157 188.246 368.451 185.514C369.622 184.733 370.013 184.147 370.013 183.562C370.013 183.171 369.817 182.586 368.646 181.805C365.523 179.853 360.448 174.778 360.448 165.994C360.448 156.429 367.085 149.402 376.259 144.913C377.04 144.522 377.43 143.741 377.43 143.156C377.43 142.57 377.04 141.985 376.259 141.204C368.451 134.958 364.547 125.783 364.547 115.243C364.547 92.0143 382.896 79.9121 405.343 79.9121ZM416.469 197.811C416.469 193.126 412.956 189.808 404.172 189.808C399.878 189.808 395.193 190.589 391.875 191.955C387.971 193.517 385.433 195.859 385.433 198.982C385.433 204.643 390.508 207.18 398.511 207.18C409.442 207.18 416.469 202.691 416.469 197.811ZM399.682 112.705C399.682 124.612 404.367 128.126 408.076 128.126C412.565 128.126 416.079 125.003 416.079 116.609C416.079 110.363 413.541 98.8462 406.71 98.8462C402.025 98.8462 399.682 104.312 399.682 112.705ZM534.879 79.5217C545.42 79.5217 560.255 81.2785 565.135 86.1584C570.6 91.6239 571.771 98.4558 571.771 106.459C571.771 112.12 568.063 115.438 563.963 115.438C560.45 115.438 557.327 112.9 554.204 109.777C548.933 104.702 543.077 97.8702 533.708 97.8702C528.633 97.8702 526.486 100.603 526.486 103.726C526.486 109.192 532.342 110.168 546.786 115.828C560.84 121.294 576.066 129.297 576.066 151.159C576.066 170.288 559.279 184.928 531.561 184.928C521.996 184.928 505.99 182.586 498.182 176.534C494.473 173.607 491.35 165.408 491.35 154.477C491.35 149.402 494.083 145.498 499.548 145.498C501.891 145.498 504.233 147.255 506.576 149.402C512.236 154.477 518.678 163.456 529.999 163.456C534.489 163.456 536.636 160.919 536.636 157.6C536.636 151.159 525.314 149.793 513.212 142.765C503.648 137.105 493.107 130.663 493.107 112.9C493.107 93.5759 511.651 79.5217 534.879 79.5217Z" fill="#F1E1D3"/>
<g clip-path="url(#clip0_1_385)">
<path d="M482.552 81.3802C482.975 81.8424 483.759 82.1434 484.382 82.0827C485.005 82.022 485.648 81.5189 485.95 80.7346L502.729 36.6326C502.729 36.6326 502.729 36.6326 502.648 36.4517C502.648 36.4517 502.648 36.4517 502.829 36.3712L513.246 9.62427C513.748 8.3171 513.727 6.80921 513.163 5.54294C512.599 4.27667 511.493 3.25203 510.266 2.93115C508.959 2.42937 507.632 2.36992 506.366 2.9337C505.1 3.49748 504.256 4.5234 503.854 5.56914C503.854 5.56914 503.674 5.64968 503.754 5.83058L494.12 30.9284L486.277 27.9177C485.754 27.717 485.312 27.6972 484.769 27.9388C484.226 28.1804 483.945 28.5224 483.744 29.0452C469.533 65.2844 482.049 80.7372 482.552 81.3802ZM507.153 7.1352L507.334 7.05466C507.334 7.05466 507.615 6.71268 507.977 6.5516C508.338 6.39052 508.6 6.49088 508.861 6.59124C509.123 6.69159 509.384 6.79195 509.545 7.15374C509.706 7.51553 509.606 7.77696 509.506 8.0384L499.871 33.1362L497.519 32.233L507.153 7.1352ZM486.602 32.5417L498.366 37.0577L483.795 75.4081C481.398 69.5389 478.112 55.8292 486.602 32.5417Z" fill="#F1E1D3"/>
</g>
<defs>
<clipPath id="clip0_1_385">
<rect width="63.4389" height="63.4389" fill="white" transform="translate(538.757 57.9543) rotate(156)"/>
</clipPath>
</defs>
</svg>
